<mxfile host="app.diagrams.net" modified="2024-04-26T23:29:51.357Z" agent="Mozilla/5.0 (Windows NT 10.0; Win64; x64) AppleWebKit/537.36 (KHTML, like Gecko) Chrome/124.0.0.0 Safari/537.36" etag="ejZJsSMDmNkzA8Itex22" version="24.3.1" type="device">
  <diagram name="Página-1" id="h7pTBiZzXUiJnkc3Qr1c">
    <mxGraphModel dx="1035" dy="541" grid="1" gridSize="10" guides="1" tooltips="1" connect="1" arrows="1" fold="1" page="1" pageScale="1" pageWidth="827" pageHeight="1169" math="0" shadow="0">
      <root>
        <mxCell id="0" />
        <mxCell id="1" parent="0" />
        <mxCell id="I3CXCH3mUX3X6go1XBvZ-2" style="edgeStyle=orthogonalEdgeStyle;rounded=0;orthogonalLoop=1;jettySize=auto;html=1;" edge="1" parent="1" source="I3CXCH3mUX3X6go1XBvZ-1" target="I3CXCH3mUX3X6go1XBvZ-3">
          <mxGeometry relative="1" as="geometry">
            <mxPoint x="290" y="60" as="targetPoint" />
          </mxGeometry>
        </mxCell>
        <mxCell id="I3CXCH3mUX3X6go1XBvZ-1" value="Inicio" style="ellipse;whiteSpace=wrap;html=1;aspect=fixed;" vertex="1" parent="1">
          <mxGeometry x="400" y="20" width="80" height="80" as="geometry" />
        </mxCell>
        <mxCell id="I3CXCH3mUX3X6go1XBvZ-5" value="" style="edgeStyle=orthogonalEdgeStyle;rounded=0;orthogonalLoop=1;jettySize=auto;html=1;" edge="1" parent="1" source="I3CXCH3mUX3X6go1XBvZ-3" target="I3CXCH3mUX3X6go1XBvZ-4">
          <mxGeometry relative="1" as="geometry" />
        </mxCell>
        <mxCell id="I3CXCH3mUX3X6go1XBvZ-3" value="Configuración de zonas y temperatura&amp;nbsp;" style="rounded=1;whiteSpace=wrap;html=1;" vertex="1" parent="1">
          <mxGeometry x="170" y="30" width="120" height="60" as="geometry" />
        </mxCell>
        <mxCell id="I3CXCH3mUX3X6go1XBvZ-7" value="" style="edgeStyle=orthogonalEdgeStyle;rounded=0;orthogonalLoop=1;jettySize=auto;html=1;" edge="1" parent="1" source="I3CXCH3mUX3X6go1XBvZ-4" target="I3CXCH3mUX3X6go1XBvZ-6">
          <mxGeometry relative="1" as="geometry" />
        </mxCell>
        <mxCell id="I3CXCH3mUX3X6go1XBvZ-4" value="Definir la primera zona" style="rounded=1;whiteSpace=wrap;html=1;" vertex="1" parent="1">
          <mxGeometry x="20" y="30" width="120" height="60" as="geometry" />
        </mxCell>
        <mxCell id="I3CXCH3mUX3X6go1XBvZ-9" value="" style="edgeStyle=orthogonalEdgeStyle;rounded=0;orthogonalLoop=1;jettySize=auto;html=1;" edge="1" parent="1" source="I3CXCH3mUX3X6go1XBvZ-6" target="I3CXCH3mUX3X6go1XBvZ-8">
          <mxGeometry relative="1" as="geometry" />
        </mxCell>
        <mxCell id="I3CXCH3mUX3X6go1XBvZ-6" value="Zona1&amp;nbsp;" style="shape=parallelogram;perimeter=parallelogramPerimeter;whiteSpace=wrap;html=1;fixedSize=1;rounded=1;" vertex="1" parent="1">
          <mxGeometry x="20" y="120" width="120" height="60" as="geometry" />
        </mxCell>
        <mxCell id="I3CXCH3mUX3X6go1XBvZ-11" value="" style="edgeStyle=orthogonalEdgeStyle;rounded=0;orthogonalLoop=1;jettySize=auto;html=1;" edge="1" parent="1" source="I3CXCH3mUX3X6go1XBvZ-8" target="I3CXCH3mUX3X6go1XBvZ-10">
          <mxGeometry relative="1" as="geometry" />
        </mxCell>
        <mxCell id="I3CXCH3mUX3X6go1XBvZ-8" value="El usuario escribe el nombre con el cual identificar la Zona1" style="whiteSpace=wrap;html=1;rounded=1;" vertex="1" parent="1">
          <mxGeometry x="160" y="120" width="120" height="60" as="geometry" />
        </mxCell>
        <mxCell id="I3CXCH3mUX3X6go1XBvZ-13" value="" style="edgeStyle=orthogonalEdgeStyle;rounded=0;orthogonalLoop=1;jettySize=auto;html=1;" edge="1" parent="1" source="I3CXCH3mUX3X6go1XBvZ-10" target="I3CXCH3mUX3X6go1XBvZ-12">
          <mxGeometry relative="1" as="geometry" />
        </mxCell>
        <mxCell id="I3CXCH3mUX3X6go1XBvZ-10" value="Definir la temperatura&amp;nbsp;" style="whiteSpace=wrap;html=1;rounded=1;" vertex="1" parent="1">
          <mxGeometry x="320" y="120" width="120" height="60" as="geometry" />
        </mxCell>
        <mxCell id="I3CXCH3mUX3X6go1XBvZ-15" value="" style="edgeStyle=orthogonalEdgeStyle;rounded=0;orthogonalLoop=1;jettySize=auto;html=1;" edge="1" parent="1" source="I3CXCH3mUX3X6go1XBvZ-12" target="I3CXCH3mUX3X6go1XBvZ-14">
          <mxGeometry relative="1" as="geometry" />
        </mxCell>
        <mxCell id="I3CXCH3mUX3X6go1XBvZ-40" style="edgeStyle=orthogonalEdgeStyle;rounded=0;orthogonalLoop=1;jettySize=auto;html=1;entryX=0.5;entryY=0;entryDx=0;entryDy=0;" edge="1" parent="1" target="I3CXCH3mUX3X6go1XBvZ-41">
          <mxGeometry relative="1" as="geometry">
            <mxPoint x="620" y="290" as="targetPoint" />
            <mxPoint x="530" y="160" as="sourcePoint" />
          </mxGeometry>
        </mxCell>
        <mxCell id="I3CXCH3mUX3X6go1XBvZ-12" value="Temperatura1" style="shape=parallelogram;perimeter=parallelogramPerimeter;whiteSpace=wrap;html=1;fixedSize=1;rounded=1;" vertex="1" parent="1">
          <mxGeometry x="470" y="120" width="120" height="60" as="geometry" />
        </mxCell>
        <mxCell id="I3CXCH3mUX3X6go1XBvZ-16" style="edgeStyle=orthogonalEdgeStyle;rounded=0;orthogonalLoop=1;jettySize=auto;html=1;" edge="1" parent="1" source="I3CXCH3mUX3X6go1XBvZ-14">
          <mxGeometry relative="1" as="geometry">
            <mxPoint x="660" y="50" as="targetPoint" />
            <Array as="points">
              <mxPoint x="700" y="85" />
              <mxPoint x="720" y="85" />
              <mxPoint x="720" y="50" />
            </Array>
          </mxGeometry>
        </mxCell>
        <mxCell id="I3CXCH3mUX3X6go1XBvZ-20" value="" style="edgeStyle=orthogonalEdgeStyle;rounded=0;orthogonalLoop=1;jettySize=auto;html=1;" edge="1" parent="1" source="I3CXCH3mUX3X6go1XBvZ-14" target="I3CXCH3mUX3X6go1XBvZ-19">
          <mxGeometry relative="1" as="geometry" />
        </mxCell>
        <mxCell id="I3CXCH3mUX3X6go1XBvZ-14" value="El usuario escribe la temperatura elegida en la zona" style="whiteSpace=wrap;html=1;rounded=1;" vertex="1" parent="1">
          <mxGeometry x="640" y="120" width="120" height="60" as="geometry" />
        </mxCell>
        <mxCell id="I3CXCH3mUX3X6go1XBvZ-18" style="edgeStyle=orthogonalEdgeStyle;rounded=0;orthogonalLoop=1;jettySize=auto;html=1;entryX=1;entryY=0.5;entryDx=0;entryDy=0;" edge="1" parent="1" source="I3CXCH3mUX3X6go1XBvZ-17" target="I3CXCH3mUX3X6go1XBvZ-1">
          <mxGeometry relative="1" as="geometry">
            <mxPoint x="490" y="60" as="targetPoint" />
          </mxGeometry>
        </mxCell>
        <mxCell id="I3CXCH3mUX3X6go1XBvZ-17" value="Repetir las veces necesarias&amp;nbsp;" style="rounded=1;whiteSpace=wrap;html=1;" vertex="1" parent="1">
          <mxGeometry x="540" y="20" width="120" height="60" as="geometry" />
        </mxCell>
        <mxCell id="I3CXCH3mUX3X6go1XBvZ-21" style="edgeStyle=orthogonalEdgeStyle;rounded=0;orthogonalLoop=1;jettySize=auto;html=1;" edge="1" parent="1" source="I3CXCH3mUX3X6go1XBvZ-19" target="I3CXCH3mUX3X6go1XBvZ-22">
          <mxGeometry relative="1" as="geometry">
            <mxPoint x="570" y="260" as="targetPoint" />
          </mxGeometry>
        </mxCell>
        <mxCell id="I3CXCH3mUX3X6go1XBvZ-19" value="Programación de horarios&amp;nbsp;" style="whiteSpace=wrap;html=1;rounded=1;" vertex="1" parent="1">
          <mxGeometry x="640" y="230" width="120" height="60" as="geometry" />
        </mxCell>
        <mxCell id="I3CXCH3mUX3X6go1XBvZ-24" value="" style="edgeStyle=orthogonalEdgeStyle;rounded=0;orthogonalLoop=1;jettySize=auto;html=1;" edge="1" parent="1" source="I3CXCH3mUX3X6go1XBvZ-22" target="I3CXCH3mUX3X6go1XBvZ-23">
          <mxGeometry relative="1" as="geometry" />
        </mxCell>
        <mxCell id="I3CXCH3mUX3X6go1XBvZ-22" value="Programar la temperatura deseada entre un horario" style="rounded=1;whiteSpace=wrap;html=1;" vertex="1" parent="1">
          <mxGeometry x="470" y="230" width="120" height="60" as="geometry" />
        </mxCell>
        <mxCell id="I3CXCH3mUX3X6go1XBvZ-26" value="" style="edgeStyle=orthogonalEdgeStyle;rounded=0;orthogonalLoop=1;jettySize=auto;html=1;" edge="1" parent="1" source="I3CXCH3mUX3X6go1XBvZ-23" target="I3CXCH3mUX3X6go1XBvZ-25">
          <mxGeometry relative="1" as="geometry" />
        </mxCell>
        <mxCell id="I3CXCH3mUX3X6go1XBvZ-23" value="Definir la primera hora&amp;nbsp;" style="whiteSpace=wrap;html=1;rounded=1;" vertex="1" parent="1">
          <mxGeometry x="320" y="230" width="120" height="60" as="geometry" />
        </mxCell>
        <mxCell id="I3CXCH3mUX3X6go1XBvZ-28" value="" style="edgeStyle=orthogonalEdgeStyle;rounded=0;orthogonalLoop=1;jettySize=auto;html=1;" edge="1" parent="1" source="I3CXCH3mUX3X6go1XBvZ-25" target="I3CXCH3mUX3X6go1XBvZ-27">
          <mxGeometry relative="1" as="geometry" />
        </mxCell>
        <mxCell id="I3CXCH3mUX3X6go1XBvZ-25" value="HoraI" style="shape=parallelogram;perimeter=parallelogramPerimeter;whiteSpace=wrap;html=1;fixedSize=1;rounded=1;" vertex="1" parent="1">
          <mxGeometry x="170" y="230" width="120" height="60" as="geometry" />
        </mxCell>
        <mxCell id="I3CXCH3mUX3X6go1XBvZ-30" value="" style="edgeStyle=orthogonalEdgeStyle;rounded=0;orthogonalLoop=1;jettySize=auto;html=1;" edge="1" parent="1" source="I3CXCH3mUX3X6go1XBvZ-27" target="I3CXCH3mUX3X6go1XBvZ-29">
          <mxGeometry relative="1" as="geometry" />
        </mxCell>
        <mxCell id="I3CXCH3mUX3X6go1XBvZ-27" value="Definir la segunda hora&amp;nbsp;" style="whiteSpace=wrap;html=1;rounded=1;" vertex="1" parent="1">
          <mxGeometry x="20" y="230" width="120" height="60" as="geometry" />
        </mxCell>
        <mxCell id="I3CXCH3mUX3X6go1XBvZ-32" value="" style="edgeStyle=orthogonalEdgeStyle;rounded=0;orthogonalLoop=1;jettySize=auto;html=1;" edge="1" parent="1" source="I3CXCH3mUX3X6go1XBvZ-29" target="I3CXCH3mUX3X6go1XBvZ-31">
          <mxGeometry relative="1" as="geometry" />
        </mxCell>
        <mxCell id="I3CXCH3mUX3X6go1XBvZ-29" value="HoraF" style="shape=parallelogram;perimeter=parallelogramPerimeter;whiteSpace=wrap;html=1;fixedSize=1;rounded=1;" vertex="1" parent="1">
          <mxGeometry x="20" y="330" width="120" height="60" as="geometry" />
        </mxCell>
        <mxCell id="I3CXCH3mUX3X6go1XBvZ-34" value="" style="edgeStyle=orthogonalEdgeStyle;rounded=0;orthogonalLoop=1;jettySize=auto;html=1;" edge="1" parent="1" source="I3CXCH3mUX3X6go1XBvZ-31" target="I3CXCH3mUX3X6go1XBvZ-33">
          <mxGeometry relative="1" as="geometry" />
        </mxCell>
        <mxCell id="I3CXCH3mUX3X6go1XBvZ-36" value="" style="edgeStyle=orthogonalEdgeStyle;rounded=0;orthogonalLoop=1;jettySize=auto;html=1;" edge="1" parent="1" source="I3CXCH3mUX3X6go1XBvZ-31" target="I3CXCH3mUX3X6go1XBvZ-35">
          <mxGeometry relative="1" as="geometry" />
        </mxCell>
        <mxCell id="I3CXCH3mUX3X6go1XBvZ-31" value="Definir la temperatura deseada en el horario seleccionado" style="whiteSpace=wrap;html=1;rounded=1;" vertex="1" parent="1">
          <mxGeometry x="170" y="330" width="120" height="60" as="geometry" />
        </mxCell>
        <mxCell id="I3CXCH3mUX3X6go1XBvZ-47" value="" style="edgeStyle=orthogonalEdgeStyle;rounded=0;orthogonalLoop=1;jettySize=auto;html=1;" edge="1" parent="1" source="I3CXCH3mUX3X6go1XBvZ-33" target="I3CXCH3mUX3X6go1XBvZ-46">
          <mxGeometry relative="1" as="geometry" />
        </mxCell>
        <mxCell id="I3CXCH3mUX3X6go1XBvZ-33" value="Temperatura entre HoraI - HoraF" style="shape=parallelogram;perimeter=parallelogramPerimeter;whiteSpace=wrap;html=1;fixedSize=1;rounded=1;" vertex="1" parent="1">
          <mxGeometry x="320" y="330" width="120" height="60" as="geometry" />
        </mxCell>
        <mxCell id="I3CXCH3mUX3X6go1XBvZ-38" value="" style="edgeStyle=orthogonalEdgeStyle;rounded=0;orthogonalLoop=1;jettySize=auto;html=1;" edge="1" parent="1" source="I3CXCH3mUX3X6go1XBvZ-35" target="I3CXCH3mUX3X6go1XBvZ-37">
          <mxGeometry relative="1" as="geometry" />
        </mxCell>
        <mxCell id="I3CXCH3mUX3X6go1XBvZ-49" style="edgeStyle=orthogonalEdgeStyle;rounded=0;orthogonalLoop=1;jettySize=auto;html=1;entryX=0;entryY=0.5;entryDx=0;entryDy=0;" edge="1" parent="1" source="I3CXCH3mUX3X6go1XBvZ-35" target="I3CXCH3mUX3X6go1XBvZ-46">
          <mxGeometry relative="1" as="geometry" />
        </mxCell>
        <mxCell id="I3CXCH3mUX3X6go1XBvZ-35" value="Si ya es de noche disminuir la temperatura&amp;nbsp;" style="whiteSpace=wrap;html=1;rounded=1;" vertex="1" parent="1">
          <mxGeometry x="170" y="420" width="120" height="60" as="geometry" />
        </mxCell>
        <mxCell id="I3CXCH3mUX3X6go1XBvZ-37" value="Si HoraI - HoraF &amp;gt; 19pm - 6am&amp;nbsp;&lt;br&gt;disminuir Temperatura" style="shape=parallelogram;perimeter=parallelogramPerimeter;whiteSpace=wrap;html=1;fixedSize=1;rounded=1;" vertex="1" parent="1">
          <mxGeometry x="20" y="420" width="120" height="60" as="geometry" />
        </mxCell>
        <mxCell id="I3CXCH3mUX3X6go1XBvZ-43" value="" style="edgeStyle=orthogonalEdgeStyle;rounded=0;orthogonalLoop=1;jettySize=auto;html=1;" edge="1" parent="1" source="I3CXCH3mUX3X6go1XBvZ-41" target="I3CXCH3mUX3X6go1XBvZ-42">
          <mxGeometry relative="1" as="geometry" />
        </mxCell>
        <mxCell id="I3CXCH3mUX3X6go1XBvZ-41" value="En caso de no seleccionar temperatura especifica&amp;nbsp;" style="rounded=1;whiteSpace=wrap;html=1;" vertex="1" parent="1">
          <mxGeometry x="560" y="310" width="120" height="60" as="geometry" />
        </mxCell>
        <mxCell id="I3CXCH3mUX3X6go1XBvZ-45" value="" style="edgeStyle=orthogonalEdgeStyle;rounded=0;orthogonalLoop=1;jettySize=auto;html=1;" edge="1" parent="1" source="I3CXCH3mUX3X6go1XBvZ-42" target="I3CXCH3mUX3X6go1XBvZ-44">
          <mxGeometry relative="1" as="geometry" />
        </mxCell>
        <mxCell id="I3CXCH3mUX3X6go1XBvZ-42" value="Definir una temperatura por defecto&amp;nbsp;" style="whiteSpace=wrap;html=1;rounded=1;" vertex="1" parent="1">
          <mxGeometry x="700" y="310" width="120" height="60" as="geometry" />
        </mxCell>
        <mxCell id="I3CXCH3mUX3X6go1XBvZ-48" style="edgeStyle=orthogonalEdgeStyle;rounded=0;orthogonalLoop=1;jettySize=auto;html=1;entryX=1;entryY=0.5;entryDx=0;entryDy=0;" edge="1" parent="1" source="I3CXCH3mUX3X6go1XBvZ-44" target="I3CXCH3mUX3X6go1XBvZ-46">
          <mxGeometry relative="1" as="geometry" />
        </mxCell>
        <mxCell id="I3CXCH3mUX3X6go1XBvZ-44" value="TemperaturaA = 22 grados&amp;nbsp;" style="shape=parallelogram;perimeter=parallelogramPerimeter;whiteSpace=wrap;html=1;fixedSize=1;rounded=1;" vertex="1" parent="1">
          <mxGeometry x="700" y="400" width="120" height="60" as="geometry" />
        </mxCell>
        <mxCell id="I3CXCH3mUX3X6go1XBvZ-46" value="FIN" style="ellipse;whiteSpace=wrap;html=1;rounded=1;" vertex="1" parent="1">
          <mxGeometry x="460" y="460" width="80" height="80" as="geometry" />
        </mxCell>
      </root>
    </mxGraphModel>
  </diagram>
</mxfile>
